<?xml version="1.0" encoding="UTF-8" standalone="no"?>
<svg
   version="1.1"
   width="1000"
   height="1000"
   style="clip-rule:evenodd;fill-rule:evenodd;image-rendering:optimizeQuality;shape-rendering:geometricPrecision;text-rendering:geometricPrecision"
   id="svg2"
   sodipodi:docname="logo.svg"
   inkscape:version="1.3.2 (091e20ef0f, 2023-11-25)"
   inkscape:export-filename="logo.svg"
   inkscape:export-xdpi="96"
   inkscape:export-ydpi="96"
   xmlns:inkscape="http://www.inkscape.org/namespaces/inkscape"
   xmlns:sodipodi="http://sodipodi.sourceforge.net/DTD/sodipodi-0.dtd"
   xmlns="http://www.w3.org/2000/svg"
   xmlns:svg="http://www.w3.org/2000/svg">
  <defs
     id="defs2" />
  <sodipodi:namedview
     id="namedview2"
     pagecolor="#505050"
     bordercolor="#eeeeee"
     borderopacity="1"
     inkscape:showpageshadow="0"
     inkscape:pageopacity="0"
     inkscape:pagecheckerboard="0"
     inkscape:deskcolor="#505050"
     inkscape:zoom="1.123"
     inkscape:cx="499.55476"
     inkscape:cy="500"
     inkscape:window-width="2560"
     inkscape:window-height="1371"
     inkscape:window-x="0"
     inkscape:window-y="0"
     inkscape:window-maximized="1"
     inkscape:current-layer="g2" />
  <g
     id="g1">
    <path
       style="opacity:0.988"
       fill="#fefffe"
       d="m 494.5,67.5 c 17.395,-0.395 34.728,0.2717 52,2 0,1 0,2 0,3 -5.772,0.0898 -11.438,0.9232 -17,2.5 -44.708,14.3664 -82.208,39.533 -112.5,75.5 -30.337,35.674 -52.004,76.007 -65,121 -10.266,34.842 -15.599,70.175 -16,106 0.69,67.848 26.523,123.681 77.5,167.5 48.998,37.491 103.332,47.824 163,31 51.018,-21.354 81.852,-59.188 92.5,-113.5 5.73,-49.976 -9.437,-92.143 -45.5,-126.5 -47.219,-39.178 -99.219,-46.844 -156,-23 -22.879,3.788 -35.212,-5.879 -37,-29 5.106,-81.418 46.106,-135.418 123,-162 69.93,-18.393 131.096,-2.893 183.5,46.5 67.552,75.054 97.885,163.387 91,265 -5.78,54.484 -23.78,104.484 -54,150 C 692.556,699.944 610.722,816.11 528.5,932 507.999,946.363 489.499,944.196 473,925.5 390.234,806.954 307.234,688.621 224,570.5 175.229,484.444 164.896,394.111 193,299.5 227.052,195.125 295.218,123.959 397.5,86 c 31.811,-9.6754 64.144,-15.8421 97,-18.5 z"
       id="path1" />
  </g>
  <g
     id="g2">
    <path
       style="opacity:0.927;fill:#35b1fc;fill-opacity:1;image-rendering:auto"
       fill="#fefffe"
       d="m 526.5,329.5 c 53.457,0.983 90.624,25.983 111.5,75 14.63,49.239 3.796,91.739 -32.5,127.5 -15.364,12.003 -32.53,20.503 -51.5,25.5 -0.5,-0.5 -1,-1 -1.5,-1.5 51.537,-40.625 66.703,-92.125 45.5,-154.5 -15.618,-32.284 -39.785,-55.784 -72.5,-70.5 0.556,-0.383 0.889,-0.883 1,-1.5 z"
       id="path2" />
  </g>
</svg>
